<svg xmlns="http://www.w3.org/2000/svg" xmlns:xlink="http://www.w3.org/1999/xlink" width="250" zoomAndPan="magnify" viewBox="0 0 187.5 187.499992" height="250" preserveAspectRatio="xMidYMid meet" version="1.0"><defs><clipPath id="93891bfd31"><path d="M 0 0 L 187 0 L 187 187 L 0 187 Z M 0 0 " clip-rule="nonzero"/></clipPath><clipPath id="3a0c5adb79"><path d="M 93.5 0 C 41.863281 0 0 41.863281 0 93.5 C 0 145.140625 41.863281 187 93.5 187 C 145.140625 187 187 145.140625 187 93.5 C 187 41.863281 145.140625 0 93.5 0 Z M 93.5 0 " clip-rule="nonzero"/></clipPath><clipPath id="7b5be72940"><path d="M 0 0 L 187 0 L 187 187 L 0 187 Z M 0 0 " clip-rule="nonzero"/></clipPath><clipPath id="d9badd78be"><path d="M 93.5 0 C 41.863281 0 0 41.863281 0 93.5 C 0 145.140625 41.863281 187 93.5 187 C 145.140625 187 187 145.140625 187 93.5 C 187 41.863281 145.140625 0 93.5 0 Z M 93.5 0 " clip-rule="nonzero"/></clipPath><clipPath id="8a3c8b8d7d"><rect x="0" width="187" y="0" height="187"/></clipPath><clipPath id="35f94fc28e"><path d="M 26.351562 40.535156 L 160.992188 40.535156 L 160.992188 146.753906 L 26.351562 146.753906 Z M 26.351562 40.535156 " clip-rule="nonzero"/></clipPath></defs><g clip-path="url(#93891bfd31)"><g clip-path="url(#3a0c5adb79)"><g transform="matrix(1, 0, 0, 1, 0, 0)"><g clip-path="url(#8a3c8b8d7d)"><g clip-path="url(#7b5be72940)"><g clip-path="url(#d9badd78be)"><rect x="-41.25" width="270" fill="#00807b" height="269.999988" y="-41.249998" fill-opacity="1"/></g></g></g></g></g></g><g clip-path="url(#35f94fc28e)"><path fill="#ffffff" d="M 158.984375 127.898438 L 156.664062 127.898438 L 156.664062 64.84375 C 156.664062 59.835938 152.589844 55.765625 147.582031 55.765625 L 76.441406 55.765625 C 72.261719 46.789062 63.15625 40.550781 52.621094 40.550781 C 38.140625 40.550781 26.363281 52.332031 26.363281 66.8125 C 26.363281 76.578125 31.875 85.601562 40.492188 90.101562 L 40.492188 93.445312 C 38.941406 94.082031 37.851562 95.601562 37.851562 97.378906 C 37.851562 99.152344 39.03125 100.789062 40.675781 101.378906 C 40.570312 101.75 40.507812 102.140625 40.507812 102.542969 C 40.507812 104.378906 41.679688 105.945312 43.316406 106.539062 C 43.917969 110.515625 47.011719 113.679688 50.953125 114.386719 L 50.953125 127.894531 L 48.632812 127.894531 C 47.710938 127.894531 46.960938 128.644531 46.960938 129.566406 L 46.960938 137.15625 C 46.960938 142.261719 51.113281 146.414062 56.222656 146.414062 L 151.394531 146.414062 C 156.5 146.414062 160.65625 142.261719 160.65625 137.15625 L 160.65625 129.566406 C 160.65625 128.644531 159.90625 127.894531 158.984375 127.894531 Z M 29.707031 66.8125 C 29.707031 54.175781 39.988281 43.894531 52.625 43.894531 C 65.257812 43.894531 75.539062 54.175781 75.539062 66.8125 C 75.539062 75.644531 70.371094 83.785156 62.375 87.554688 C 61.789062 87.828125 61.414062 88.417969 61.414062 89.066406 L 61.414062 93.125 L 56.933594 93.125 L 56.933594 74.609375 L 58.320312 74.609375 C 60.933594 74.609375 63.054688 72.488281 63.054688 69.875 C 63.054688 67.265625 60.933594 65.140625 58.320312 65.140625 C 55.710938 65.140625 53.589844 67.265625 53.589844 69.875 L 53.589844 71.265625 L 51.667969 71.265625 L 51.667969 69.871094 C 51.667969 67.265625 49.546875 65.140625 46.933594 65.140625 C 44.324219 65.140625 42.203125 67.265625 42.203125 69.875 C 42.203125 72.488281 44.324219 74.609375 46.933594 74.609375 L 48.324219 74.609375 L 48.324219 93.125 L 43.84375 93.125 L 43.84375 89.066406 C 43.84375 88.421875 43.46875 87.828125 42.882812 87.554688 C 34.886719 83.785156 29.71875 75.644531 29.71875 66.8125 Z M 61.394531 102.546875 C 61.394531 103.039062 60.976562 103.457031 60.484375 103.457031 L 44.765625 103.457031 C 44.273438 103.457031 43.855469 103.039062 43.855469 102.546875 C 43.855469 102.050781 44.273438 101.632812 44.765625 101.632812 L 60.484375 101.632812 C 60.976562 101.632812 61.394531 102.050781 61.394531 102.546875 Z M 42.105469 98.292969 C 41.613281 98.292969 41.195312 97.875 41.195312 97.378906 C 41.195312 96.886719 41.613281 96.46875 42.105469 96.46875 L 63.140625 96.46875 C 63.636719 96.46875 64.054688 96.886719 64.054688 97.378906 C 64.054688 97.875 63.636719 98.292969 63.140625 98.292969 Z M 48.320312 71.261719 L 46.929688 71.261719 C 46.164062 71.261719 45.539062 70.640625 45.539062 69.871094 C 45.539062 69.105469 46.164062 68.484375 46.929688 68.484375 C 47.695312 68.484375 48.320312 69.105469 48.320312 69.871094 Z M 53.582031 93.125 L 51.664062 93.125 L 51.664062 74.609375 L 53.582031 74.609375 Z M 56.925781 71.261719 L 56.925781 69.871094 C 56.925781 69.105469 57.550781 68.484375 58.316406 68.484375 C 59.082031 68.484375 59.707031 69.105469 59.707031 69.871094 C 59.707031 70.640625 59.082031 71.261719 58.316406 71.261719 Z M 46.789062 106.804688 L 58.457031 106.804688 C 57.730469 109.339844 55.386719 111.203125 52.621094 111.203125 C 49.855469 111.203125 47.515625 109.339844 46.789062 106.804688 Z M 54.296875 114.390625 C 58.234375 113.683594 61.332031 110.515625 61.933594 106.542969 C 63.570312 105.949219 64.742188 104.382812 64.742188 102.546875 C 64.742188 102.144531 64.679688 101.753906 64.574219 101.382812 C 66.21875 100.792969 67.398438 99.226562 67.398438 97.382812 C 67.398438 95.542969 66.304688 94.085938 64.757812 93.449219 L 64.757812 90.109375 C 73.375 85.609375 78.886719 76.582031 78.886719 66.816406 C 78.886719 64.136719 78.484375 61.550781 77.734375 59.113281 L 147.589844 59.113281 C 150.75 59.113281 153.324219 61.6875 153.324219 64.851562 L 153.324219 127.90625 L 54.296875 127.90625 Z M 94.582031 131.242188 L 113.03125 131.242188 L 113.03125 133.367188 C 113.03125 134.535156 112.082031 135.488281 110.910156 135.488281 L 96.703125 135.488281 C 95.535156 135.488281 94.582031 134.535156 94.582031 133.367188 Z M 157.3125 137.160156 C 157.3125 140.421875 154.65625 143.078125 151.394531 143.078125 L 56.222656 143.078125 C 52.960938 143.078125 50.304688 140.421875 50.304688 137.160156 L 50.304688 131.242188 L 91.238281 131.242188 L 91.238281 133.367188 C 91.238281 136.378906 93.691406 138.832031 96.707031 138.832031 L 110.914062 138.832031 C 113.925781 138.832031 116.378906 136.378906 116.378906 133.367188 L 116.378906 131.242188 L 157.316406 131.242188 L 157.316406 137.160156 Z M 96.601562 106.71875 L 86.679688 106.71875 C 85.757812 106.71875 85.007812 107.46875 85.007812 108.390625 L 85.007812 121.191406 C 85.007812 122.113281 85.757812 122.863281 86.679688 122.863281 L 96.601562 122.863281 C 97.527344 122.863281 98.273438 122.113281 98.273438 121.191406 L 98.273438 108.390625 C 98.273438 107.46875 97.527344 106.71875 96.601562 106.71875 Z M 94.933594 119.519531 L 88.351562 119.519531 L 88.351562 110.0625 L 94.933594 110.0625 Z M 112.910156 100.738281 L 102.984375 100.738281 C 102.0625 100.738281 101.316406 101.488281 101.316406 102.410156 L 101.316406 121.1875 C 101.316406 122.109375 102.0625 122.859375 102.984375 122.859375 L 112.910156 122.859375 C 113.832031 122.859375 114.582031 122.109375 114.582031 121.1875 L 114.582031 102.410156 C 114.582031 101.488281 113.832031 100.738281 112.910156 100.738281 Z M 111.238281 119.519531 L 104.65625 119.519531 L 104.65625 104.082031 L 111.238281 104.082031 Z M 129.214844 92.285156 L 119.289062 92.285156 C 118.367188 92.285156 117.617188 93.035156 117.617188 93.957031 L 117.617188 121.191406 C 117.617188 122.113281 118.367188 122.863281 119.289062 122.863281 L 129.214844 122.863281 C 130.136719 122.863281 130.886719 122.113281 130.886719 121.191406 L 130.886719 93.957031 C 130.886719 93.035156 130.136719 92.285156 129.214844 92.285156 Z M 127.542969 119.519531 L 120.960938 119.519531 L 120.960938 95.628906 L 127.542969 95.628906 Z M 145.519531 79.300781 L 135.59375 79.300781 C 134.671875 79.300781 133.921875 80.050781 133.921875 80.972656 L 133.921875 121.191406 C 133.921875 122.113281 134.671875 122.863281 135.59375 122.863281 L 145.519531 122.863281 C 146.441406 122.863281 147.191406 122.113281 147.191406 121.191406 L 147.191406 80.972656 C 147.191406 80.050781 146.441406 79.300781 145.519531 79.300781 Z M 143.847656 119.519531 L 137.265625 119.519531 L 137.265625 82.644531 L 143.847656 82.644531 Z M 134.710938 74.054688 C 133.949219 74.054688 133.257812 73.527344 133.082031 72.75 L 132.476562 70.070312 C 126.246094 79.304688 119.4375 85.941406 111.730469 90.304688 C 104.464844 94.425781 96.511719 96.433594 87.457031 96.433594 C 87.191406 96.433594 86.925781 96.433594 86.660156 96.425781 C 85.738281 96.417969 85 95.660156 85.011719 94.734375 C 85.023438 93.8125 85.773438 93.074219 86.703125 93.085938 C 104.3125 93.3125 118.023438 85.429688 129.601562 68.347656 L 127.042969 68.925781 C 126.140625 69.128906 125.246094 68.5625 125.042969 67.660156 C 124.839844 66.761719 125.40625 65.867188 126.308594 65.664062 L 132.871094 64.1875 C 133.777344 63.984375 134.667969 64.546875 134.871094 65.453125 L 136.347656 72.015625 C 136.550781 72.914062 135.984375 73.808594 135.082031 74.011719 C 134.960938 74.042969 134.835938 74.054688 134.714844 74.054688 Z M 85.011719 68.640625 C 85.011719 67.714844 85.761719 66.96875 86.683594 66.96875 L 108.019531 66.96875 C 108.941406 66.96875 109.691406 67.714844 109.691406 68.640625 C 109.691406 69.5625 108.941406 70.308594 108.019531 70.308594 L 86.683594 70.308594 C 85.761719 70.308594 85.011719 69.5625 85.011719 68.640625 Z M 85.011719 77.890625 C 85.011719 76.96875 85.761719 76.21875 86.683594 76.21875 L 95.96875 76.21875 C 96.890625 76.21875 97.640625 76.96875 97.640625 77.890625 C 97.640625 78.8125 96.890625 79.5625 95.96875 79.5625 L 86.683594 79.5625 C 85.761719 79.5625 85.011719 78.8125 85.011719 77.890625 Z M 85.011719 77.890625 " fill-opacity="1" fill-rule="nonzero"/></g></svg>