<svg xmlns="http://www.w3.org/2000/svg" xmlns:xlink="http://www.w3.org/1999/xlink" width="250" zoomAndPan="magnify" viewBox="0 0 187.5 187.499992" height="250" preserveAspectRatio="xMidYMid meet" version="1.0"><defs><clipPath id="0833923599"><path d="M 0 0 L 187 0 L 187 187 L 0 187 Z M 0 0 " clip-rule="nonzero"/></clipPath><clipPath id="6bbaf346f7"><path d="M 93.5 0 C 41.863281 0 0 41.863281 0 93.5 C 0 145.140625 41.863281 187 93.5 187 C 145.140625 187 187 145.140625 187 93.5 C 187 41.863281 145.140625 0 93.5 0 Z M 93.5 0 " clip-rule="nonzero"/></clipPath><clipPath id="5cd525c6dd"><path d="M 0 0 L 187 0 L 187 187 L 0 187 Z M 0 0 " clip-rule="nonzero"/></clipPath><clipPath id="4383c1ce58"><path d="M 93.5 0 C 41.863281 0 0 41.863281 0 93.5 C 0 145.140625 41.863281 187 93.5 187 C 145.140625 187 187 145.140625 187 93.5 C 187 41.863281 145.140625 0 93.5 0 Z M 93.5 0 " clip-rule="nonzero"/></clipPath><clipPath id="e4dcd78c8a"><rect x="0" width="187" y="0" height="187"/></clipPath><clipPath id="3525075312"><path d="M 137 128 L 154 128 L 154 144.878906 L 137 144.878906 Z M 137 128 " clip-rule="nonzero"/></clipPath><clipPath id="d533ecf07c"><path d="M 33.03125 128 L 50 128 L 50 144.878906 L 33.03125 144.878906 Z M 33.03125 128 " clip-rule="nonzero"/></clipPath><clipPath id="8d4ab05791"><path d="M 33.03125 42.402344 L 50 42.402344 L 50 59 L 33.03125 59 Z M 33.03125 42.402344 " clip-rule="nonzero"/></clipPath><clipPath id="a9b0ff2003"><path d="M 133 42.402344 L 150 42.402344 L 150 59 L 133 59 Z M 133 42.402344 " clip-rule="nonzero"/></clipPath><clipPath id="56d0b9cede"><path d="M 33.03125 86 L 50 86 L 50 103 L 33.03125 103 Z M 33.03125 86 " clip-rule="nonzero"/></clipPath></defs><g clip-path="url(#0833923599)"><g clip-path="url(#6bbaf346f7)"><g transform="matrix(1, 0, 0, 1, 0, 0)"><g clip-path="url(#e4dcd78c8a)"><g clip-path="url(#5cd525c6dd)"><g clip-path="url(#4383c1ce58)"><rect x="-41.25" width="270" fill="#00807b" height="269.999988" y="-41.249998" fill-opacity="1"/></g></g></g></g></g></g><g clip-path="url(#3525075312)"><path fill="#ffffff" d="M 145.796875 144.542969 C 141.292969 144.542969 137.628906 140.878906 137.628906 136.378906 C 137.628906 131.875 141.292969 128.210938 145.796875 128.210938 C 150.300781 128.210938 153.960938 131.875 153.960938 136.378906 C 153.960938 140.878906 150.300781 144.542969 145.796875 144.542969 Z M 145.796875 131.992188 C 143.378906 131.992188 141.410156 133.960938 141.410156 136.378906 C 141.410156 138.796875 143.378906 140.765625 145.796875 140.765625 C 148.214844 140.765625 150.183594 138.796875 150.183594 136.378906 C 150.183594 133.960938 148.214844 131.992188 145.796875 131.992188 Z M 145.796875 131.992188 " fill-opacity="1" fill-rule="nonzero"/></g><g clip-path="url(#d533ecf07c)"><path fill="#ffffff" d="M 41.195312 144.542969 C 36.695312 144.542969 33.03125 140.878906 33.03125 136.378906 C 33.03125 131.875 36.695312 128.210938 41.195312 128.210938 C 45.699219 128.210938 49.363281 131.875 49.363281 136.378906 C 49.363281 140.878906 45.699219 144.542969 41.195312 144.542969 Z M 41.195312 131.992188 C 38.777344 131.992188 36.808594 133.960938 36.808594 136.378906 C 36.808594 138.796875 38.777344 140.765625 41.195312 140.765625 C 43.613281 140.765625 45.582031 138.796875 45.582031 136.378906 C 45.582031 133.960938 43.613281 131.992188 41.195312 131.992188 Z M 41.195312 131.992188 " fill-opacity="1" fill-rule="nonzero"/></g><g clip-path="url(#8d4ab05791)"><path fill="#ffffff" d="M 41.195312 58.769531 C 36.695312 58.769531 33.03125 55.109375 33.03125 50.605469 C 33.03125 46.101562 36.695312 42.441406 41.195312 42.441406 C 45.699219 42.441406 49.363281 46.101562 49.363281 50.605469 C 49.363281 55.109375 45.699219 58.769531 41.195312 58.769531 Z M 41.195312 46.21875 C 38.777344 46.21875 36.808594 48.1875 36.808594 50.605469 C 36.808594 53.023438 38.777344 54.992188 41.195312 54.992188 C 43.613281 54.992188 45.582031 53.023438 45.582031 50.605469 C 45.582031 48.1875 43.613281 46.21875 41.195312 46.21875 Z M 41.195312 46.21875 " fill-opacity="1" fill-rule="nonzero"/></g><g clip-path="url(#a9b0ff2003)"><path fill="#ffffff" d="M 141.613281 58.769531 C 137.109375 58.769531 133.445312 55.109375 133.445312 50.605469 C 133.445312 46.101562 137.109375 42.441406 141.613281 42.441406 C 146.113281 42.441406 149.777344 46.101562 149.777344 50.605469 C 149.777344 55.109375 146.113281 58.769531 141.613281 58.769531 Z M 141.613281 46.21875 C 139.195312 46.21875 137.226562 48.1875 137.226562 50.605469 C 137.226562 53.023438 139.195312 54.992188 141.613281 54.992188 C 144.03125 54.992188 146 53.023438 146 50.605469 C 146 48.1875 144.03125 46.21875 141.613281 46.21875 Z M 141.613281 46.21875 " fill-opacity="1" fill-rule="nonzero"/></g><g clip-path="url(#56d0b9cede)"><path fill="#ffffff" d="M 41.195312 102.703125 C 36.695312 102.703125 33.03125 99.039062 33.03125 94.539062 C 33.03125 90.035156 36.695312 86.371094 41.195312 86.371094 C 45.699219 86.371094 49.363281 90.035156 49.363281 94.539062 C 49.363281 99.039062 45.699219 102.703125 41.195312 102.703125 Z M 41.195312 90.152344 C 38.777344 90.152344 36.808594 92.117188 36.808594 94.539062 C 36.808594 96.957031 38.777344 98.925781 41.195312 98.925781 C 43.613281 98.925781 45.582031 96.957031 45.582031 94.539062 C 45.582031 92.117188 43.613281 90.152344 41.195312 90.152344 Z M 41.195312 90.152344 " fill-opacity="1" fill-rule="nonzero"/></g><path fill="#ffffff" d="M 95.867188 125.714844 L 86.890625 125.714844 C 84.84375 125.714844 83.179688 124.050781 83.179688 122.007812 L 83.179688 119.578125 C 81.378906 119.035156 79.640625 118.3125 77.984375 117.421875 L 76.28125 119.125 C 74.835938 120.574219 72.480469 120.574219 71.035156 119.125 L 64.6875 112.777344 C 63.238281 111.332031 63.238281 108.976562 64.6875 107.53125 L 66.402344 105.816406 C 65.515625 104.160156 64.796875 102.417969 64.253906 100.617188 L 61.84375 100.617188 C 59.796875 100.617188 58.132812 98.953125 58.132812 96.910156 L 58.132812 87.929688 C 58.132812 85.882812 59.796875 84.21875 61.84375 84.21875 L 64.269531 84.21875 C 64.816406 82.421875 65.535156 80.683594 66.429688 79.027344 L 64.722656 77.320312 C 63.277344 75.875 63.277344 73.523438 64.722656 72.078125 L 71.070312 65.726562 C 72.519531 64.28125 74.871094 64.28125 76.316406 65.726562 L 78.035156 67.445312 C 79.691406 66.554688 81.429688 65.835938 83.230469 65.296875 L 83.230469 62.886719 C 83.230469 60.839844 84.894531 59.175781 86.941406 59.175781 L 95.917969 59.175781 C 97.964844 59.175781 99.628906 60.839844 99.628906 62.886719 L 99.628906 65.3125 C 101.429688 65.855469 103.167969 66.578125 104.824219 67.46875 L 106.527344 65.765625 C 107.226562 65.0625 108.160156 64.679688 109.152344 64.679688 C 110.140625 64.679688 111.074219 65.0625 111.773438 65.765625 L 118.121094 72.113281 C 119.566406 73.558594 119.566406 75.914062 118.121094 77.359375 L 116.40625 79.074219 C 117.292969 80.734375 118.011719 82.472656 118.554688 84.273438 L 120.964844 84.273438 C 123.007812 84.273438 124.671875 85.9375 124.671875 87.984375 L 124.671875 96.960938 C 124.671875 99.007812 123.011719 100.671875 120.964844 100.671875 L 118.539062 100.671875 C 117.992188 102.472656 117.269531 104.210938 116.378906 105.863281 L 118.085938 107.570312 C 119.53125 109.015625 119.53125 111.367188 118.085938 112.816406 L 111.734375 119.164062 C 111.035156 119.863281 110.105469 120.25 109.113281 120.25 C 108.121094 120.25 107.191406 119.863281 106.492188 119.164062 L 104.773438 117.449219 C 103.117188 118.335938 101.378906 119.054688 99.578125 119.597656 L 99.578125 122.007812 C 99.578125 124.050781 97.914062 125.714844 95.867188 125.714844 Z M 86.957031 121.9375 L 95.796875 121.9375 L 95.796875 118.152344 C 95.796875 117.28125 96.394531 116.523438 97.238281 116.316406 C 99.664062 115.726562 101.976562 114.769531 104.113281 113.476562 C 104.855469 113.027344 105.8125 113.140625 106.429688 113.757812 L 109.113281 116.441406 L 115.363281 110.191406 L 112.6875 107.515625 C 112.070312 106.898438 111.957031 105.941406 112.410156 105.199219 C 113.707031 103.066406 114.667969 100.753906 115.261719 98.332031 C 115.46875 97.484375 116.226562 96.890625 117.097656 96.890625 L 120.894531 96.890625 L 120.894531 88.050781 L 117.109375 88.050781 C 116.238281 88.050781 115.480469 87.457031 115.273438 86.609375 C 114.683594 84.183594 113.726562 81.871094 112.433594 79.738281 C 111.984375 78.992188 112.101562 78.039062 112.714844 77.421875 L 115.402344 74.738281 L 109.152344 68.488281 L 106.472656 71.164062 C 105.859375 71.777344 104.898438 71.894531 104.15625 71.441406 C 102.023438 70.144531 99.714844 69.183594 97.289062 68.585938 C 96.445312 68.378906 95.851562 67.621094 95.851562 66.753906 L 95.851562 62.957031 L 87.011719 62.957031 L 87.011719 66.738281 C 87.011719 67.613281 86.414062 68.371094 85.570312 68.574219 C 83.144531 69.167969 80.832031 70.121094 78.695312 71.414062 C 77.953125 71.867188 76.996094 71.75 76.378906 71.136719 L 73.695312 68.449219 L 67.445312 74.699219 L 70.121094 77.375 C 70.738281 77.992188 70.851562 78.949219 70.398438 79.695312 C 69.101562 81.824219 68.140625 84.136719 67.546875 86.5625 C 67.339844 87.40625 66.582031 88 65.710938 88 L 61.914062 88 L 61.914062 96.839844 L 65.699219 96.839844 C 66.570312 96.839844 67.328125 97.433594 67.535156 98.28125 C 68.125 100.707031 69.082031 103.019531 70.375 105.152344 C 70.824219 105.898438 70.707031 106.855469 70.09375 107.46875 L 67.40625 110.15625 L 73.65625 116.40625 L 76.335938 113.726562 C 76.949219 113.113281 77.910156 112.996094 78.652344 113.449219 C 80.785156 114.746094 83.09375 115.707031 85.519531 116.304688 C 86.363281 116.511719 86.957031 117.269531 86.957031 118.140625 Z M 86.957031 121.9375 " fill-opacity="1" fill-rule="nonzero"/><path fill="#ffffff" d="M 91.402344 113.363281 C 85.816406 113.363281 80.5625 111.1875 76.613281 107.238281 C 72.664062 103.285156 70.488281 98.03125 70.488281 92.445312 C 70.488281 86.859375 72.664062 81.605469 76.613281 77.65625 C 80.5625 73.703125 85.816406 71.527344 91.402344 71.527344 C 96.992188 71.527344 102.242188 73.703125 106.195312 77.65625 C 110.144531 81.605469 112.320312 86.859375 112.320312 92.445312 C 112.320312 98.03125 110.144531 103.285156 106.195312 107.238281 C 102.242188 111.1875 96.992188 113.363281 91.402344 113.363281 Z M 91.402344 75.308594 C 81.953125 75.308594 74.265625 82.996094 74.265625 92.445312 C 74.265625 101.894531 81.953125 109.585938 91.402344 109.585938 C 100.855469 109.585938 108.542969 101.894531 108.542969 92.445312 C 108.542969 82.996094 100.855469 75.308594 91.402344 75.308594 Z M 91.402344 75.308594 " fill-opacity="1" fill-rule="nonzero"/><path fill="#ffffff" d="M 88.542969 99.34375 C 88.058594 99.34375 87.574219 99.160156 87.207031 98.792969 L 82.910156 94.496094 C 82.171875 93.761719 82.171875 92.5625 82.910156 91.824219 C 83.648438 91.085938 84.84375 91.085938 85.582031 91.824219 L 88.542969 94.785156 L 97.226562 86.101562 C 97.960938 85.363281 99.160156 85.363281 99.898438 86.101562 C 100.636719 86.835938 100.636719 88.035156 99.898438 88.773438 L 89.878906 98.792969 C 89.507812 99.160156 89.023438 99.34375 88.542969 99.34375 Z M 88.542969 99.34375 " fill-opacity="1" fill-rule="nonzero"/><path fill="#ffffff" d="M 37.375 90.160156 C 36.519531 90.160156 35.746094 89.574219 35.539062 88.703125 C 35.261719 87.539062 35.121094 86.332031 35.121094 85.125 C 35.121094 76.582031 42.070312 69.636719 50.609375 69.636719 L 67.945312 69.636719 C 68.992188 69.636719 69.835938 70.480469 69.835938 71.527344 C 69.835938 72.570312 68.992188 73.414062 67.945312 73.414062 L 50.609375 73.414062 C 44.152344 73.414062 38.902344 78.667969 38.902344 85.125 C 38.902344 86.039062 39.007812 86.953125 39.214844 87.832031 C 39.457031 88.847656 38.828125 89.867188 37.8125 90.105469 C 37.667969 90.140625 37.519531 90.160156 37.375 90.160156 Z M 37.375 90.160156 " fill-opacity="1" fill-rule="nonzero"/><path fill="#ffffff" d="M 133.246094 73.414062 L 114.863281 73.414062 C 113.820312 73.414062 112.972656 72.570312 112.972656 71.527344 C 112.972656 70.480469 113.820312 69.636719 114.863281 69.636719 L 133.246094 69.636719 C 136.09375 69.636719 138.769531 68.527344 140.785156 66.511719 C 142.796875 64.5 143.90625 61.820312 143.90625 58.972656 C 143.90625 58.375 143.855469 57.773438 143.757812 57.191406 C 143.585938 56.164062 144.28125 55.1875 145.308594 55.015625 C 146.339844 54.84375 147.3125 55.535156 147.488281 56.566406 C 147.617188 57.355469 147.6875 58.164062 147.6875 58.972656 C 147.6875 62.832031 146.183594 66.457031 143.457031 69.183594 C 140.726562 71.914062 137.101562 73.414062 133.246094 73.414062 Z M 133.246094 73.414062 " fill-opacity="1" fill-rule="nonzero"/><path fill="#ffffff" d="M 145.796875 131.992188 C 144.753906 131.992188 143.90625 131.144531 143.90625 130.101562 L 143.90625 104.996094 C 143.90625 103.953125 144.753906 103.109375 145.796875 103.109375 C 146.839844 103.109375 147.6875 103.953125 147.6875 104.996094 L 147.6875 130.101562 C 147.6875 131.144531 146.839844 131.992188 145.796875 131.992188 Z M 145.796875 131.992188 " fill-opacity="1" fill-rule="nonzero"/><path fill="#ffffff" d="M 139.519531 138.265625 L 47.472656 138.265625 C 46.429688 138.265625 45.582031 137.421875 45.582031 136.378906 C 45.582031 135.335938 46.429688 134.488281 47.472656 134.488281 L 139.519531 134.488281 C 140.5625 134.488281 141.410156 135.335938 141.410156 136.378906 C 141.410156 137.421875 140.5625 138.265625 139.519531 138.265625 Z M 139.519531 138.265625 " fill-opacity="1" fill-rule="nonzero"/><path fill="#ffffff" d="M 139.519531 100.609375 L 121.425781 100.609375 C 120.378906 100.609375 119.535156 99.765625 119.535156 98.722656 C 119.535156 97.679688 120.378906 96.832031 121.425781 96.832031 L 139.519531 96.832031 C 140.5625 96.832031 141.410156 97.679688 141.410156 98.722656 C 141.410156 99.765625 140.5625 100.609375 139.519531 100.609375 Z M 139.519531 100.609375 " fill-opacity="1" fill-rule="nonzero"/><path fill="#ffffff" d="M 61.695312 100.609375 L 50.609375 100.609375 C 49.402344 100.609375 48.195312 100.472656 47.03125 100.195312 C 46.015625 99.953125 45.386719 98.9375 45.625 97.921875 C 45.867188 96.90625 46.882812 96.277344 47.898438 96.519531 C 48.78125 96.726562 49.695312 96.832031 50.609375 96.832031 L 61.695312 96.832031 C 62.738281 96.832031 63.582031 97.679688 63.582031 98.722656 C 63.582031 99.765625 62.738281 100.609375 61.695312 100.609375 Z M 61.695312 100.609375 " fill-opacity="1" fill-rule="nonzero"/><path fill="#ffffff" d="M 135.339844 52.496094 C 135.238281 52.496094 135.132812 52.488281 135.027344 52.46875 C 134.441406 52.371094 133.84375 52.320312 133.246094 52.320312 L 47.472656 52.320312 C 46.429688 52.320312 45.582031 51.476562 45.582031 50.433594 C 45.582031 49.386719 46.429688 48.542969 47.472656 48.542969 L 133.246094 48.542969 C 134.050781 48.542969 134.863281 48.609375 135.652344 48.742188 C 136.679688 48.914062 137.375 49.890625 137.203125 50.917969 C 137.046875 51.839844 136.246094 52.496094 135.339844 52.496094 Z M 135.339844 52.496094 " fill-opacity="1" fill-rule="nonzero"/><path fill="#ffffff" d="M 145.796875 106.886719 C 141.292969 106.886719 137.628906 103.222656 137.628906 98.722656 C 137.628906 94.21875 141.292969 90.554688 145.796875 90.554688 C 150.300781 90.554688 153.960938 94.21875 153.960938 98.722656 C 153.960938 103.222656 150.300781 106.886719 145.796875 106.886719 Z M 145.796875 94.335938 C 143.378906 94.335938 141.410156 96.304688 141.410156 98.722656 C 141.410156 101.140625 143.378906 103.109375 145.796875 103.109375 C 148.214844 103.109375 150.183594 101.140625 150.183594 98.722656 C 150.183594 96.304688 148.214844 94.335938 145.796875 94.335938 Z M 145.796875 94.335938 " fill-opacity="1" fill-rule="nonzero"/></svg>