<svg xmlns="http://www.w3.org/2000/svg" xmlns:xlink="http://www.w3.org/1999/xlink" width="250" zoomAndPan="magnify" viewBox="0 0 187.5 187.499992" height="250" preserveAspectRatio="xMidYMid meet" version="1.0"><defs><clipPath id="04a4b3b209"><path d="M 0 0 L 187 0 L 187 187 L 0 187 Z M 0 0 " clip-rule="nonzero"/></clipPath><clipPath id="7680a46c0b"><path d="M 93.5 0 C 41.863281 0 0 41.863281 0 93.5 C 0 145.140625 41.863281 187 93.5 187 C 145.140625 187 187 145.140625 187 93.5 C 187 41.863281 145.140625 0 93.5 0 Z M 93.5 0 " clip-rule="nonzero"/></clipPath><clipPath id="ea034318bf"><path d="M 0 0 L 187 0 L 187 187 L 0 187 Z M 0 0 " clip-rule="nonzero"/></clipPath><clipPath id="95d3af5048"><path d="M 93.5 0 C 41.863281 0 0 41.863281 0 93.5 C 0 145.140625 41.863281 187 93.5 187 C 145.140625 187 187 145.140625 187 93.5 C 187 41.863281 145.140625 0 93.5 0 Z M 93.5 0 " clip-rule="nonzero"/></clipPath><clipPath id="39eff875c0"><rect x="0" width="187" y="0" height="187"/></clipPath><clipPath id="de12d176a6"><path d="M 34 34 L 153 34 L 153 152.871094 L 34 152.871094 Z M 34 34 " clip-rule="nonzero"/></clipPath></defs><g clip-path="url(#04a4b3b209)"><g clip-path="url(#7680a46c0b)"><g transform="matrix(1, 0, 0, 1, 0, 0)"><g clip-path="url(#39eff875c0)"><g clip-path="url(#ea034318bf)"><g clip-path="url(#95d3af5048)"><rect x="-41.25" width="270" fill="#00807b" height="269.999988" y="-41.249998" fill-opacity="1"/></g></g></g></g></g></g><g clip-path="url(#de12d176a6)"><path fill="#ffffff" d="M 151.25 77.398438 C 147.761719 71.332031 138.949219 68.933594 126.320312 70.578125 C 126.457031 69.070312 126.511719 67.535156 126.429688 65.996094 C 125.703125 49.410156 112.1875 35.597656 95.652344 34.558594 C 86.460938 33.980469 77.691406 37.132812 70.992188 43.414062 C 64.363281 49.625 60.5625 58.410156 60.5625 67.480469 C 60.5625 69.082031 60.710938 70.660156 60.925781 72.222656 C 60.925781 72.304688 60.953125 72.398438 60.96875 72.492188 C 61.953125 78.917969 64.78125 84.941406 69.226562 89.808594 C 70.15625 90.832031 71.046875 91.882812 71.910156 92.960938 C 64.335938 97.988281 57.355469 103.496094 51.574219 109.0625 C 40.445312 97.757812 35.175781 87.058594 37.375 80.335938 C 38.707031 81.332031 40.335938 81.925781 42.117188 81.925781 C 46.480469 81.925781 50.027344 78.378906 50.027344 74.015625 C 50.027344 69.648438 46.480469 66.105469 42.117188 66.105469 C 37.75 66.105469 34.207031 69.648438 34.207031 74.015625 C 34.207031 75.539062 34.652344 76.964844 35.40625 78.179688 C 31.742188 85.941406 36.996094 98.027344 49.703125 110.910156 C 36.578125 124.234375 31.363281 136.6875 35.769531 144.40625 C 38.558594 149.273438 44.730469 151.765625 53.449219 151.765625 C 58.179688 151.765625 63.691406 151.011719 69.792969 149.527344 C 71.207031 151.65625 73.632812 153.070312 76.382812 153.070312 C 80.75 153.070312 84.292969 149.527344 84.292969 145.164062 C 84.292969 140.796875 80.75 137.253906 76.382812 137.253906 C 72.015625 137.253906 68.472656 140.796875 68.472656 145.164062 C 68.472656 145.824219 68.566406 146.457031 68.714844 147.0625 C 53.085938 150.820312 41.671875 149.367188 38.074219 143.101562 C 34.328125 136.578125 39.527344 125.015625 51.589844 112.753906 C 59.472656 120.367188 69.324219 127.710938 80.222656 134.019531 C 84.375 136.445312 88.660156 138.695312 92.945312 140.714844 C 108.453125 148.019531 122.722656 151.726562 133.449219 151.726562 C 142.085938 151.726562 148.421875 149.3125 151.238281 144.40625 C 155.65625 136.6875 150.429688 124.222656 137.304688 110.910156 C 150.429688 97.582031 155.644531 85.132812 151.238281 77.410156 Z M 42.117188 68.734375 C 45.027344 68.734375 47.386719 71.089844 47.386719 74 C 47.386719 76.910156 45.027344 79.269531 42.117188 79.269531 C 39.207031 79.269531 36.847656 76.910156 36.847656 74 C 36.847656 71.089844 39.207031 68.734375 42.117188 68.734375 Z M 76.382812 139.878906 C 79.292969 139.878906 81.652344 142.238281 81.652344 145.148438 C 81.652344 148.058594 79.292969 150.417969 76.382812 150.417969 C 73.472656 150.417969 71.113281 148.058594 71.113281 145.148438 C 71.113281 142.238281 73.472656 139.878906 76.382812 139.878906 Z M 148.960938 78.703125 C 152.707031 85.226562 147.503906 96.789062 135.457031 109.035156 C 129.648438 103.445312 122.628906 97.90625 115.015625 92.867188 C 115.730469 92.003906 116.472656 91.167969 117.238281 90.375 C 121.847656 85.574219 124.824219 79.660156 125.945312 73.261719 C 137.652344 71.628906 146.023438 73.582031 148.960938 78.703125 Z M 71.195312 88 C 66.046875 82.382812 63.203125 75.105469 63.203125 67.464844 C 63.203125 58.976562 66.601562 51.121094 72.785156 45.3125 C 78.957031 39.53125 86.988281 36.636719 95.476562 37.175781 C 110.691406 38.117188 123.128906 50.835938 123.800781 66.089844 C 124.164062 74.527344 121.160156 82.492188 115.339844 88.539062 C 109.113281 94.996094 104.707031 103.417969 102.566406 112.917969 C 102.296875 112.863281 102.039062 112.835938 101.769531 112.835938 L 85.25 112.835938 C 84.980469 112.835938 84.722656 112.863281 84.46875 112.917969 L 84.441406 112.808594 C 82.460938 103.886719 77.878906 95.304688 71.183594 88 Z M 87.285156 123.84375 C 86.597656 123.84375 86.03125 123.277344 86.03125 122.578125 L 86.03125 122.226562 C 86.03125 121.539062 86.597656 120.976562 87.285156 120.976562 L 99.75 120.976562 C 100.4375 120.976562 101.003906 121.539062 101.003906 122.226562 L 101.003906 122.578125 C 101.003906 123.277344 100.4375 123.84375 99.75 123.84375 Z M 98.980469 127.726562 L 98.980469 128.074219 C 98.980469 128.761719 98.414062 129.328125 97.714844 129.328125 L 89.332031 129.328125 C 88.632812 129.328125 88.066406 128.761719 88.066406 128.074219 L 88.066406 127.726562 C 88.066406 127.023438 88.632812 126.472656 89.332031 126.472656 L 97.714844 126.472656 C 98.414062 126.472656 98.980469 127.023438 98.980469 127.726562 Z M 85.261719 118.332031 C 84.574219 118.332031 84.011719 117.78125 84.011719 117.082031 L 84.011719 116.730469 C 84.011719 116.042969 84.574219 115.476562 85.261719 115.476562 L 101.785156 115.476562 C 102.472656 115.476562 103.035156 116.042969 103.035156 116.730469 L 103.035156 117.082031 C 103.035156 117.78125 102.472656 118.332031 101.785156 118.332031 Z M 81.558594 131.726562 C 70.871094 125.515625 61.195312 118.332031 53.476562 110.882812 C 59.175781 105.398438 66.046875 99.953125 73.527344 95.035156 C 77.609375 100.707031 80.464844 106.960938 81.894531 113.375 C 81.894531 113.375 81.976562 113.710938 81.976562 113.710938 C 82.015625 113.953125 82.097656 114.171875 82.175781 114.386719 C 81.691406 115.046875 81.382812 115.839844 81.382812 116.714844 L 81.382812 117.066406 C 81.382812 118.671875 82.351562 120.046875 83.753906 120.652344 C 83.539062 121.125 83.417969 121.648438 83.417969 122.199219 L 83.417969 122.550781 C 83.417969 124.15625 84.386719 125.542969 85.789062 126.136719 C 85.574219 126.605469 85.453125 127.132812 85.453125 127.699219 L 85.453125 128.050781 C 85.453125 130.191406 87.203125 131.929688 89.347656 131.929688 L 97.726562 131.929688 C 99.871094 131.929688 101.621094 130.191406 101.621094 128.050781 L 101.621094 127.699219 C 101.621094 127.132812 101.488281 126.605469 101.285156 126.136719 C 102.6875 125.542969 103.65625 124.15625 103.65625 122.550781 L 103.65625 122.199219 C 103.65625 121.648438 103.523438 121.125 103.320312 120.652344 C 104.722656 120.046875 105.691406 118.671875 105.691406 117.066406 L 105.691406 116.714844 C 105.691406 115.828125 105.394531 115.046875 104.894531 114.386719 C 104.976562 114.171875 105.058594 113.953125 105.097656 113.710938 C 106.648438 106.703125 109.503906 100.332031 113.425781 94.953125 C 120.945312 99.914062 127.871094 105.371094 133.585938 110.882812 C 125.863281 118.320312 116.1875 125.515625 105.503906 131.726562 C 101.59375 133.992188 97.566406 136.121094 93.535156 138.035156 C 89.507812 136.105469 85.480469 133.992188 81.570312 131.726562 Z M 148.972656 143.074219 C 143.636719 152.359375 121.847656 150.78125 96.609375 139.476562 C 100.046875 137.777344 103.480469 135.945312 106.808594 133.992188 C 117.710938 127.683594 127.5625 120.339844 135.445312 112.726562 C 147.515625 124.976562 152.707031 136.550781 148.960938 143.074219 Z M 148.972656 143.074219 " fill-opacity="1" fill-rule="nonzero"/></g><path fill="#ffffff" d="M 93.511719 42.578125 C 94.238281 42.578125 94.832031 41.984375 94.832031 41.257812 C 94.832031 40.53125 94.238281 39.9375 93.511719 39.9375 C 78.351562 39.9375 66.019531 52.28125 66.019531 67.464844 C 66.019531 68.207031 66.613281 68.785156 67.339844 68.785156 C 68.070312 68.785156 68.660156 68.207031 68.660156 67.464844 C 68.660156 67.007812 68.703125 66.550781 68.730469 66.078125 C 69.429688 53.453125 79.535156 43.332031 92.136719 42.644531 C 92.59375 42.617188 93.050781 42.578125 93.523438 42.578125 Z M 93.511719 42.578125 " fill-opacity="1" fill-rule="nonzero"/><path fill="#ffffff" d="M 87.417969 92.015625 C 87.070312 93.164062 87.582031 94.320312 88.660156 94.847656 C 88.996094 95.007812 89.359375 95.089844 89.695312 95.089844 C 90.449219 95.089844 91.164062 94.726562 91.625 94.050781 L 103.644531 76.425781 C 104.371094 75.363281 104.101562 73.894531 103.035156 73.152344 L 94.507812 67.183594 L 99.601562 50.742188 C 99.949219 49.597656 99.4375 48.4375 98.359375 47.914062 C 97.296875 47.402344 96.070312 47.726562 95.394531 48.722656 L 83.375 66.347656 C 82.648438 67.410156 82.917969 68.878906 83.984375 69.609375 L 92.511719 75.589844 L 87.417969 92.03125 Z M 85.707031 67.585938 L 96.542969 51.6875 L 91.945312 66.578125 C 91.648438 67.558594 92 68.636719 92.847656 69.230469 L 101.3125 75.160156 L 90.476562 91.058594 L 95.074219 76.171875 C 95.140625 75.929688 95.179688 75.699219 95.179688 75.457031 C 95.179688 74.703125 94.832031 73.972656 94.171875 73.515625 Z M 85.707031 67.585938 " fill-opacity="1" fill-rule="nonzero"/></svg>